<svg width="54" height="55" viewBox="0 0 54 55" fill="none" xmlns="http://www.w3.org/2000/svg">
<g clip-path="url(#clip0_17_23)">
<path d="M2.16809 9.16921C2.14146 5.3033 5.25381 2.14779 9.11971 2.12116L45.1189 1.87321C48.9848 1.84658 52.1403 4.95892 52.1669 8.82483L52.4149 44.824C52.4415 48.6899 49.3291 51.8454 45.4632 51.872L9.46409 52.12C5.59818 52.1466 2.44267 49.0343 2.41604 45.1684L2.16809 9.16921Z" fill="black"/>
<path d="M20.2124 15.5451C20.2295 18.0303 18.2288 20.0588 15.7435 20.076C13.2583 20.0931 11.2298 18.0923 11.2126 15.6071C11.1955 13.1218 13.1963 11.0933 15.6815 11.0762C18.1668 11.0591 20.1953 13.0599 20.2124 15.5451Z" fill="white"/>
<path d="M12.2643 23.1C12.2605 22.5477 12.7051 22.0969 13.2574 22.0931L18.2572 22.0587C18.8095 22.0549 19.2603 22.4995 19.2641 23.0518L19.395 42.0513C19.3988 42.6036 18.9542 43.0544 18.4019 43.0582L13.402 43.0926C12.8497 43.0964 12.3989 42.6518 12.3951 42.0995L12.2643 23.1Z" fill="white"/>
<path d="M23.2571 22.0243L27.757 21.9933C28.3093 21.9895 28.7601 22.4341 28.7639 22.9864L28.7708 23.9864C30.7535 21.4726 34.4189 21.2807 36.2534 21.4347C41.9722 21.9149 42.9635 27.722 42.8187 30.8897L42.8944 41.8895C42.8982 42.4418 42.4536 42.8925 41.9013 42.8963L37.4014 42.9274C36.8492 42.9312 36.3984 42.4865 36.3946 41.9343L36.3188 30.9345C36.143 29.6024 35.1913 26.9422 32.7913 26.9587C30.3914 26.9752 28.9788 29.985 28.819 30.9862L28.8947 41.9859C28.8986 42.5382 28.4539 42.989 27.9017 42.9928L23.4018 43.0238C22.8495 43.0276 22.3987 42.5829 22.3949 42.0307L22.264 23.0311C22.2602 22.4789 22.7049 22.0281 23.2571 22.0243Z" fill="white"/>
</g>
<defs>
<clipPath id="clip0_17_23">
<rect width="53" height="53" fill="white" transform="translate(0.113037 1.18317) rotate(-0.394634)"/>
</clipPath>
</defs>
</svg>
